<?xml version="1.0" encoding="utf-8"?>
<!-- Generator: Adobe Illustrator 26.0.1, SVG Export Plug-In . SVG Version: 6.00 Build 0)  -->
<svg version="1.1" xmlns="http://www.w3.org/2000/svg" xmlns:xlink="http://www.w3.org/1999/xlink" x="0px" y="0px"
	 viewBox="0 0 3081 3116" style="enable-background:new 0 0 3081 3116;" xml:space="preserve">
<style type="text/css">
	.st0{fill:url(#SVGID_1_);}
	.st1{fill:url(#SVGID_00000035495854419022301550000001970178477845926282_);}
	.st2{fill:url(#SVGID_00000101784741301447240380000016497500180392346281_);}
	.st3{fill:none;stroke:#6BBE85;stroke-width:29.5887;}
	.st4{opacity:0.86;}
	.st5{opacity:0.82;fill:#0B0A0A;}
	.st6{fill:#0B0A0A;stroke:#FFFFFF;stroke-width:3;}
</style>
<g id="Layer_1">
	<path d="M1813.6,2966.2l-5.6-15l34.1-12.6l48.6,131l-16.7,6.2l-43-115.9L1813.6,2966.2z"/>
	<path d="M2062.9,2983.2c4.6,5.9,9.9,9.5,15.9,10.8c6.1,1.3,12.7,0,19.7-3.7c9.4-5,14.4-12.4,14.9-22.2c0.6-9.8-3.9-23.4-13.5-40.8
		c0.3,6.4-1.5,12.5-5.5,18.5c-4,5.8-9.5,10.6-16.3,14.2c-7.6,4.1-15.2,6.2-22.9,6.3c-7.6,0-14.7-2.1-21.4-6.3
		c-6.6-4.2-12.2-10.6-16.8-19.1c-6.5-12.2-8.2-23.8-5.1-35c3-11.3,11-20.4,24-27.3c15.9-8.5,29.8-9.3,41.7-2.4
		c12,6.9,23.5,20.5,34.4,41c7.7,14.3,12.7,26.8,15.1,37.5c2.5,10.6,2,20.1-1.6,28.2c-3.4,8.1-10.4,15-20.9,20.6
		c-11.6,6.2-22.3,7.9-32.1,5.1c-9.8-2.8-17.8-8.8-23.8-17.9L2062.9,2983.2z M2073.6,2945.5c7.6-4.1,12.6-9.7,15-17
		c2.3-7.4,1.3-15.1-3-23.2c-4.6-8.5-10.6-14.1-18.2-16.8c-7.6-2.7-15.7-1.7-24.3,2.9c-8,4.3-13,10.2-15.1,17.7
		c-2,7.5-0.8,15.3,3.6,23.5c4.4,8.3,10.3,13.7,17.7,16.2C2056.7,2951.4,2064.7,2950.3,2073.6,2945.5z"/>
	<path d="M2274.5,2863.3c4.7,5.8,10.1,9.2,16.1,10.4c6.1,1.1,12.7-0.3,19.6-4.2c9.3-5.3,14.1-12.8,14.3-22.5
		c0.4-9.8-4.5-23.3-14.5-40.4c0.5,6.4-1.2,12.6-5,18.6c-3.9,5.9-9.2,10.8-15.9,14.6c-7.5,4.3-15.1,6.5-22.7,6.9
		c-7.6,0.2-14.8-1.8-21.5-5.8c-6.7-4-12.5-10.3-17.2-18.7c-6.8-12-8.8-23.6-5.9-34.8c2.8-11.3,10.5-20.6,23.3-27.8
		c15.7-8.9,29.6-10,41.6-3.4c12.2,6.6,24,20,35.4,40.1c8,14.1,13.3,26.5,15.9,37.2c2.7,10.6,2.4,20-0.9,28.3
		c-3.2,8.2-10,15.2-20.4,21.1c-11.4,6.5-22.1,8.4-32,5.9c-9.9-2.5-18-8.3-24.3-17.3L2274.5,2863.3z M2284.3,2825.3
		c7.5-4.3,12.4-10.1,14.6-17.4c2.2-7.4,1-15.1-3.5-23.1c-4.8-8.4-11-13.9-18.6-16.3c-7.6-2.5-15.7-1.3-24.2,3.5
		c-7.8,4.4-12.7,10.5-14.6,18.1c-1.8,7.5-0.4,15.3,4.2,23.4c4.6,8.2,10.6,13.4,18,15.8C2267.5,2831.6,2275.5,2830.3,2284.3,2825.3z"
		/>
	<path d="M2480.4,2602.7l-57.8,35.5l23.1,37.5c0.4-5.1,2.3-10.2,5.9-15.4c3.5-5.3,8.1-9.8,13.8-13.3c9.1-5.6,17.7-8.2,25.8-7.9
		c8,0.2,15.1,2.6,21.2,7.2c6.2,4.4,11.3,9.9,15.4,16.6c4.9,7.9,7.7,15.9,8.6,24c0.9,8.1-0.6,15.8-4.6,23.2
		c-3.8,7.3-10.2,13.8-19.2,19.3c-11.5,7.1-22.7,9.9-33.4,8.3c-10.8-1.5-20-6.8-27.6-15.7l14.6-9c5.3,5.4,11.3,8.4,18.1,9.1
		c6.8,0.7,13.7-1.1,20.7-5.4c8.7-5.3,13.6-11.9,14.8-19.8c1.2-8-0.9-16.2-6.1-24.8c-5.3-8.6-11.5-13.8-18.7-15.7
		c-7.3-2-15.2-0.4-23.8,4.9c-5.8,3.6-10,8.1-12.7,13.7c-2.6,5.4-3.4,11.1-2.4,17.1l-14.2,8.7l-41.3-67.2l71.6-44L2480.4,2602.7z"/>
	<path d="M1418.8,2962.3l-5.2,44.7l48.8,5.6l-1.7,14.4l-48.7-5.6l-5.3,46.1l54.5,6.3l-1.7,14.4l-72-8.3l15.5-134l72,8.3l-1.7,14.4
		L1418.8,2962.3z"/>
	<path d="M1125.7,2955.8c2.1-13,7-24.1,14.6-33.4c7.6-9.5,16.9-16.3,27.9-20.4c11.1-4.2,22.9-5.2,35.2-3.2
		c14.5,2.4,26.6,8,36.2,16.8c9.6,8.8,15.9,20,18.7,33.7l-20.8-3.5c-2.4-8.6-6.7-15.7-12.9-21.1c-6.1-5.5-14-9-23.7-10.6
		c-9.3-1.5-18-0.8-26.1,2.4c-8.1,3.1-14.9,8.3-20.4,15.6c-5.5,7.2-9.1,16.1-10.9,26.8c-1.8,10.5-1.2,20.2,1.7,28.9
		c2.9,8.6,7.6,15.6,14.3,21.2c6.7,5.5,14.6,9.1,23.9,10.6c9.7,1.6,18.3,0.9,25.8-2.2c7.7-3.2,14.1-8.4,19.1-15.8l20.8,3.5
		c-7.1,11.9-16.6,20.4-28.5,25.6c-11.9,5.1-25.1,6.4-39.6,4c-12.3-2-23.1-6.8-32.3-14.2c-9.1-7.5-15.7-16.9-19.8-28.2
		C1124.5,2980.9,1123.6,2968.8,1125.7,2955.8z"/>
	<path d="M945.7,2949.3l-16-7.3l-19.8-126.9l-44.6,97.5l-16-7.3l56-122.7l16,7.3l19.8,126.7l44.5-97.4l16,7.3L945.7,2949.3z"/>
	<path d="M767.5,2705.3l-67.3,116.6l-15.2-8.8l67.3-116.6L767.5,2705.3z"/>
	<path d="M512.6,2699.4c-7.3-5-13-10.8-17.1-17.4c-3.9-6.6-5.9-13.3-6.1-20.1c-0.1-6.9,1.9-13.5,6-19.6l15.4,10.6
		c-3,5.6-3.9,11.4-2.7,17.6c1.4,6.1,5.7,11.7,13,16.6c6.9,4.7,13.5,6.8,19.7,6.1c6.4-0.7,11.5-3.8,15.2-9.2
		c2.9-4.2,4.1-8.5,3.6-12.8c-0.5-4.3-2-8.3-4.6-12.1c-2.6-3.8-6.3-8.5-11.1-14.2c-6-6.9-10.6-12.9-13.7-17.9
		c-3-4.9-4.8-10.5-5.2-16.7c-0.2-6.3,2-12.8,6.8-19.7c4.2-6.1,9.4-10.4,15.7-12.9c6.3-2.6,13.1-3.2,20.3-2
		c7.4,1.3,14.7,4.4,21.9,9.4c10.4,7.1,17.1,15.6,20.1,25.3c3.1,9.8,2.1,19.3-2.9,28.5l-15.9-10.9c2.4-4.6,2.7-9.9,1-15.7
		c-1.7-6-5.7-11.2-12.2-15.7c-6.1-4.2-12.1-5.9-18.1-5.4c-5.9,0.5-10.8,3.5-14.7,9.1c-2.8,4-3.9,8.1-3.4,12.2
		c0.6,4.2,2.1,8,4.4,11.7c2.5,3.6,6.2,8.3,11.1,14.2c5.9,7.1,10.5,13.1,13.5,18.2c3.1,5,4.9,10.6,5.2,16.9
		c0.4,6.2-1.8,12.8-6.6,19.9c-3.7,5.4-8.7,9.5-14.8,12.3c-6.1,2.8-13.1,3.8-20.7,2.9C527.9,2707.7,520.3,2704.6,512.6,2699.4z"/>
	<g>
		
			<linearGradient id="SVGID_1_" gradientUnits="userSpaceOnUse" x1="1527.0391" y1="2464.2024" x2="1527.0391" y2="1565.2504" gradientTransform="matrix(1 0 0 -1 0 3116)">
			<stop  offset="0" style="stop-color:#8AB5DC"/>
			<stop  offset="1" style="stop-color:#67BCB7"/>
		</linearGradient>
		<path class="st0" d="M1527,1550.7c-142.8,0-279.4-107-258.6-322.3c16.8-173.3,174-441.2,234.8-539.2c11.1-17.9,36.5-18,47.6,0
			c60.7,97.6,217.6,364.4,234.7,539.2C1806.8,1445.8,1669.8,1550.7,1527,1550.7z"/>
		
			<linearGradient id="SVGID_00000039818723069011824810000001907230277344389301_" gradientUnits="userSpaceOnUse" x1="2551.9885" y1="1815.7954" x2="1804.915" y2="1315.7948" gradientTransform="matrix(1 0 0 -1 0 3116)">
			<stop  offset="0" style="stop-color:#C3DC8A"/>
			<stop  offset="1" style="stop-color:#67BC84"/>
		</linearGradient>
		<path style="fill:url(#SVGID_00000039818723069011824810000001907230277344389301_);" d="M1804.9,1800.2
			c79.4,118.7,244.3,172.7,411.6,35.6c134.7-110.3,269.9-390,317.5-495c8.7-19.2-5.4-40.3-26.4-39.6
			c-114.9,3.8-423.9,21.8-578.7,104.8C1736.5,1509.3,1725.5,1681.6,1804.9,1800.2z"/>
		
			<linearGradient id="SVGID_00000111187710704815145960000007789281236808737201_" gradientUnits="userSpaceOnUse" x1="500.1272" y1="1815.792" x2="1247.1959" y2="1315.7913" gradientTransform="matrix(1 0 0 -1 0 3116)">
			<stop  offset="0" style="stop-color:#C3DC8A"/>
			<stop  offset="1" style="stop-color:#67BC84"/>
		</linearGradient>
		<path style="fill:url(#SVGID_00000111187710704815145960000007789281236808737201_);" d="M1247.2,1800.2
			c-79.4,118.7-244.3,172.7-411.6,35.6c-134.7-110.3-269.9-390-317.5-495c-8.7-19.2,5.4-40.3,26.4-39.6
			c114.9,3.8,423.9,21.8,578.7,104.8C1315.6,1509.3,1326.6,1681.6,1247.2,1800.2z"/>
		<path class="st3" d="M1526.3,2531.5v-279.1 M1526.3,2252.4c0,0,0-326.8,379.3-498.5 M1526.3,2252.4c0,0,0-331.6-386.8-498.5"/>
	</g>
	<g class="st4">
		<path class="st5" d="M2303.4,349.5c0,0.1-0.1-0.4,0.1-0.8c8.7-15.7,8.7-15.8,23.5-6.2c225.2,145.4,398.8,337.3,519.5,576.4
			c64.4,127.5,108.2,261.9,132.3,402.7c19.7,114.9,26.4,230.4,17.9,346.6c-22.8,314.1-135,592.7-336.3,835.4
			c-3.2,3.8-5.9,8.2-10.6,11.1c-4.5-3.8-9-7.6-13.5-11.4c276.2-337.7,387.4-721.3,326.7-1153.4
			C2891.1,919.4,2666.7,589.1,2303.4,349.5z"/>
		<path class="st5" d="M444.4,2502.7c-3.3,4.3-8.2,7.6-12.9,11.4c-4.5-0.9-6.2-5-8.7-8c-155-185.1-258.6-395.3-309.6-631.3
			c-24.4-113-35.7-227.3-31.8-342.7c12.6-372,146.7-694.3,401.5-966.1c71.2-75.9,150.7-142.5,236.9-200.9c15-10.2,15-10.2,24.1,6.2
			c-350.4,244.4-564.3,574.5-629,998.3C61.1,1794.6,173,2171.6,444.4,2502.7z"/>
		<path class="st6" d="M881.8,228.2c0.4,7,3.5,10.5,5.6,14.4c17.5,32,35,64,52.5,96c4.6,8.4,4.5,8.4-3.8,13.2
			c-18.3,10.5-18.4,10.6-28.3-7.5c-24.6-44.8-49.1-89.5-73.6-134.3c-1.9-3.5-4.7-6.7-4.9-10.9c23.2-16.3,23.2-16.4,46.8-4
			c36.3,19.1,72.7,38.2,109,57.3c4,2.1,7.7,4.9,13.3,5.8c0.7-4.5-2.4-7.6-4.1-10.7c-17.9-32.8-36-65.5-53.9-98.3
			c-5-9.1-4.9-9.2,4-14.2c17.7-10.1,17.7-10,27.3,7.5c25,45.5,50.1,91,75.1,136.6c5.2,9.5,5.1,9.5-4.7,14.9
			c-0.4,0.2-0.9,0.4-1.2,0.6c-10.6,8.9-20.2,7.1-32,0.5c-37.9-21-76.5-40.7-114.8-60.8C890.6,232.2,886.9,230.6,881.8,228.2z"/>
		<path class="st6" d="M1170.8,259.8c-0.8-16.8,2-32.1,3.2-47.5c3.6-45.5,7.4-90.9,11.7-136.3c1.4-14.6-1.1-12,13.7-15.8
			c7-1.8,14.4-6.7,21-4.3c6.6,2.3,9.1,10.8,13.2,16.8c31.3,45.4,62.5,91,93.7,136.5c1.5,2.2,3.7,4,4,7.9c-7.6,4.4-16.9,4.6-25.3,7.6
			c-3.7,1.3-5.8-1.2-7.6-4.1c-5-7.6-10.3-15.1-15.2-22.7c-2.5-3.9-5-5.3-10.1-3.9c-20.6,5.8-41.4,11.3-62.2,16.3
			c-5.6,1.4-7.3,4.1-7.4,9.3c-0.1,5-1,10-1.5,15c-1.7,17.9-1.7,18-19.3,22.5C1179.2,258,1175.7,258.7,1170.8,259.8z M1264.5,170.3
			c-9.1-13.4-17.1-25.6-25.4-37.6c-8-11.6-15.2-23.9-25.8-36.3c-2.5,31.3-4.7,59.6-7.1,89.3C1226.7,180.3,1245.1,175.4,1264.5,170.3
			z"/>
		<path class="st6" d="M1787,41.4c24.7,3.7,48.8,6.5,72.5,11.1c20.1,3.9,36.8,14.3,44.6,34.4c14.5,37.3-12.7,74.5-54.5,74.1
			c-10.4-0.1-20.9-2.2-31.3-3.4c-3.6-0.4-7.3-0.7-10.9-1.4c-5.2-1-7.1,1-7.7,6.3c-2.4,19.4-5.3,38.8-8.1,58.2
			c-1.2,8.8-1.2,8.8-10,7.8c-22.2-2.6-21.9-2.6-18.6-25.1c7-48.7,13.6-97.5,20.4-146.2C1784.2,52.3,1784.5,47.3,1787,41.4z
			 M1842,135.5c20.2,0.6,30.2-6.9,33.8-23.5c3.4-16-2.9-28.8-17.7-33.8c-13-4.5-26.8-4.9-40.3-6.8c-3.1-0.4-5.4,0.6-5.9,4
			c-2.3,16.6-4.5,33.3-6.7,49.9c-0.5,4,1.3,5.7,5.2,6.2C1821.7,132.8,1833,134.3,1842,135.5z"/>
		<path class="st6" d="M1481.7,140.3c0.9,20.7,1.7,40.3,2.6,59.9c0.1,3.2,0.1,6.4,0.3,9.6c0.2,3.8-1.2,5.9-5.4,6
			c-6.4,0.1-12.8,0.4-19.2,0.8c-5.1,0.3-5.9-2.4-6.1-6.7c-0.6-16-1.5-31.9-2.2-47.8c-1.8-40.1-3.4-80.2-5.2-120.3
			c-0.5-10.9-0.5-10.8,10.9-11.3c18.3-0.8,36.5-1.7,54.8-2.5c12.5-0.5,24.6,1.5,36,6.7c21,9.7,30.8,26.8,30.5,49.2
			c-0.2,22.6-11.1,38.9-32,48.3c-11.5,5.2-23.9,5.8-36.2,6.7C1501.5,139.5,1492.4,139.8,1481.7,140.3z M1478.8,81.5
			c0.6,9.1,1.2,18.6,1.8,28.1c0.2,2.9,0.7,5.5,4.5,5.3c14.5-0.7,29.3,0.1,43.4-3.9c13.4-3.8,19.4-14.1,18.8-29.5
			c-0.6-14.6-7.2-23.3-20.4-27c-7.2-2-14.4-1.9-21.7-1.3c-8.5,0.6-19.6-1.5-24.9,3.1C1474.5,61.2,1479.7,72.5,1478.8,81.5z"/>
		<path class="st6" d="M2167.7,300c-3,8.1-2.8,17.7-8.5,21c-5.8,3.3-13.5-2.8-20.3-5c-22.1-7.4-44-15-65.5-22.3
			c-2.5-4,0.1-6.8,1-9.6c17.7-51.8,35.4-103.5,53.2-155.3c0.7-2.2,1.6-4.3,2.2-6.5c1.2-3.8,3.5-5.1,7.3-3.6c0.4,0.2,0.8,0.4,1.3,0.5
			c23.1,6.5,23,6.5,15,29.6c-13.7,39.6-27.3,79.3-40.9,119c-1.2,3.4-2.3,6.9-3.8,11.5C2128.1,286.1,2147.3,292.9,2167.7,300z"/>
	</g>
</g>
<g id="Layer_2">
</g>
</svg>
