<svg width="3081" height="3116" viewBox="0 0 3081 3116" fill="none" xmlns="http://www.w3.org/2000/svg">
<path d="M477.214 1817.87L486.078 1839L416.578 1942.91L512.746 1902.55L521.61 1923.68L392.645 1977.79L383.781 1956.67L453.095 1852.84L357.112 1893.11L348.248 1871.99L477.214 1817.87Z" fill="black"/>
<path d="M417.185 1651.1L426.154 1708.89L455.892 1714.44L459.559 1738.07L313.681 1710.08L309.612 1683.87L440.142 1612.97L443.84 1636.8L417.185 1651.1ZM399.704 1660.32L339.049 1692.72L406.701 1705.4L399.704 1660.32Z" fill="black"/>
<path d="M306.816 1450.38L325.504 1450.47L325.33 1487.64L446.299 1488.21L446.191 1511.12L325.223 1510.55L325.048 1547.93L306.36 1547.84L306.816 1450.38Z" fill="black"/>
<path d="M333.435 1318.28L420.261 1337.91C430.584 1340.25 438.964 1339.33 445.402 1335.15C451.87 1330.85 456.197 1323.86 458.384 1314.19C460.6 1304.39 459.701 1296.22 455.686 1289.68C451.701 1283.01 444.547 1278.51 434.224 1276.17L347.398 1256.54L352.451 1234.19L438.885 1253.74C449.992 1256.25 458.853 1260.8 465.469 1267.38C472.085 1273.96 476.371 1281.72 478.328 1290.68C480.285 1299.64 480.156 1309.02 477.939 1318.82C475.723 1328.62 471.804 1337.14 466.183 1344.39C460.591 1351.5 453.408 1356.54 444.635 1359.5C435.862 1362.46 425.922 1362.68 414.816 1360.17L328.381 1340.62L333.435 1318.28Z" fill="black"/>
<path d="M553.422 1118.14L489.759 1128.21L483.512 1144.54L535.687 1164.5L527.501 1185.9L397.064 1135.99L414.296 1090.95C418.126 1080.94 423.109 1073.17 429.245 1067.62C435.429 1061.96 442.107 1058.56 449.28 1057.43C456.501 1056.18 463.74 1056.94 470.997 1059.72C479.505 1062.97 486.306 1068.44 491.398 1076.13C496.412 1083.64 498.208 1093 496.785 1104.22L563.187 1092.62L553.422 1118.14ZM466.433 1138.01L475.48 1114.36C478.544 1106.35 478.839 1099.58 476.367 1094.04C473.943 1088.38 469.353 1084.26 462.596 1081.68C455.84 1079.09 449.819 1079.08 444.534 1081.65C439.123 1084.17 434.862 1089.5 431.751 1097.63L422.703 1121.28L466.433 1138.01Z" fill="black"/>
<path d="M623.23 933.871L593.025 983.942L612.269 1007.28L599.917 1027.76L506.006 912.674L519.707 889.961L665.309 919.359L652.853 940.007L623.23 933.871ZM603.907 929.724L536.601 915.641L580.345 968.783L603.907 929.724Z" fill="black"/>
<path d="M713.587 840.883L745.536 806.109L759.15 818.616L711.702 870.26L608.86 775.773L624.358 758.904L713.587 840.883Z" fill="black"/>
<path d="M1047.73 563.167L999.382 596.051L1007.12 625.296L987.347 638.743L950.071 494.957L972.004 480.04L1092.03 567.551L1072.09 581.112L1047.73 563.167ZM1031.91 551.33L976.632 510.429L994.19 576.982L1031.91 551.33Z" fill="black"/>
<path d="M1230.68 516.592L1181.18 475.306L1164.78 481.356L1184.11 533.768L1162.62 541.695L1114.29 410.666L1159.54 393.977C1169.59 390.268 1178.72 388.899 1186.94 389.868C1195.27 390.791 1202.23 393.581 1207.8 398.236C1213.5 402.846 1217.69 408.795 1220.38 416.085C1223.53 424.632 1223.89 433.352 1221.46 442.245C1219.11 450.965 1213.24 458.483 1203.86 464.798L1256.32 507.135L1230.68 516.592ZM1158.45 464.2L1182.21 455.438C1190.25 452.471 1195.54 448.235 1198.08 442.729C1200.74 437.178 1200.82 431.008 1198.32 424.221C1195.82 417.434 1191.86 412.897 1186.45 410.61C1180.99 408.197 1174.17 408.497 1166 411.51L1142.25 420.272L1158.45 464.2Z" fill="black"/>
<path d="M1402.49 488.792C1389.62 490.595 1377.33 489.274 1365.61 484.829C1354.01 480.233 1344.27 473.008 1336.4 463.154C1328.64 453.149 1323.81 441.381 1321.91 427.849C1320.02 414.317 1321.43 401.74 1326.16 390.12C1331.02 378.482 1338.41 368.924 1348.32 361.448C1358.34 353.821 1369.79 349.105 1382.66 347.301C1395.66 345.479 1407.96 346.866 1419.56 351.463C1431.28 355.908 1441 363.067 1448.75 372.939C1456.49 382.811 1461.31 394.513 1463.2 408.045C1465.1 421.577 1463.69 434.22 1458.98 445.973C1454.25 457.593 1446.88 467.216 1436.85 474.844C1426.94 482.32 1415.49 486.969 1402.49 488.792ZM1399.73 469.09C1408.88 467.807 1416.75 464.607 1423.34 459.491C1429.91 454.241 1434.64 447.49 1437.54 439.238C1440.56 430.834 1441.35 421.524 1439.92 411.309C1438.49 401.093 1435.18 392.426 1429.99 385.308C1424.93 378.171 1418.53 373.049 1410.79 369.94C1403.05 366.831 1394.6 365.919 1385.45 367.202C1376.29 368.485 1368.42 371.685 1361.83 376.801C1355.24 381.918 1350.43 388.612 1347.4 396.883C1344.5 405.136 1343.76 414.37 1345.2 424.585C1346.63 434.801 1349.88 443.543 1354.96 450.813C1360.15 457.931 1366.62 463.111 1374.38 466.352C1382.12 469.461 1390.57 470.373 1399.73 469.09Z" fill="black"/>
<path d="M1711.11 343.869L1705.16 483.399L1682.27 482.423L1686.35 386.859L1639.71 480.606L1623.85 479.93L1585.16 382.541L1581.08 478.105L1558.2 477.128L1564.15 337.597L1588.84 338.651L1633.16 450.158L1686.62 342.823L1711.11 343.869Z" fill="black"/>
<path d="M1888.18 492.201L1831.3 478.61L1814.9 504.028L1791.64 498.47L1872.81 374.071L1898.61 380.236L1914.77 527.894L1891.32 522.29L1888.18 492.201ZM1886.27 472.531L1879.27 404.125L1841.9 461.929L1886.27 472.531Z" fill="black"/>
<path d="M2284.79 636.274C2281.15 642.373 2276.29 647.271 2270.19 650.966C2264.09 654.661 2256.84 656.349 2248.46 656.03C2240.14 655.597 2231.03 652.432 2221.13 646.535L2199.38 633.576L2170.38 682.258L2150.7 670.533L2222.18 550.554L2263.61 575.238C2272.82 580.723 2279.62 586.963 2284.03 593.956C2288.63 600.904 2290.87 608.007 2290.75 615.268C2290.75 622.597 2288.76 629.599 2284.79 636.274ZM2230.7 630.48C2238.18 634.937 2244.75 636.594 2250.42 635.45C2256.16 634.192 2260.89 630.455 2264.59 624.24C2272.4 611.12 2268.89 600.138 2254.04 591.293L2232.29 578.334L2208.95 617.521L2230.7 630.48Z" fill="black"/>
<path d="M2348.7 831.32L2360.03 767.869L2346.65 756.621L2310.7 799.384L2293.17 784.644L2383.03 677.736L2419.95 708.767C2428.15 715.663 2433.86 722.917 2437.09 730.53C2440.42 738.228 2441.44 745.651 2440.16 752.798C2438.98 760.031 2435.89 766.622 2430.89 772.57C2425.03 779.543 2417.64 784.177 2408.71 786.472C2399.97 788.751 2390.53 787.381 2380.4 782.364L2369.62 848.904L2348.7 831.32ZM2358.41 742.623L2377.79 758.914C2384.36 764.431 2390.66 766.927 2396.7 766.404C2402.84 765.967 2408.24 762.98 2412.9 757.442C2417.55 751.904 2419.53 746.218 2418.83 740.383C2418.22 734.446 2414.59 728.676 2407.92 723.073L2388.54 706.782L2358.41 742.623Z" fill="black"/>
<path d="M2453.76 970.392C2445.35 960.483 2439.89 949.39 2437.38 937.114C2435.06 924.852 2435.96 912.76 2440.07 900.837C2444.38 888.929 2451.74 878.555 2462.16 869.715C2472.58 860.875 2483.96 855.345 2496.31 853.127C2508.74 851.01 2520.77 852.139 2532.39 856.513C2544.19 860.903 2554.3 868.053 2562.71 877.961C2571.2 887.972 2576.61 899.109 2578.93 911.37C2581.44 923.646 2580.59 935.695 2576.39 947.516C2572.19 959.338 2564.88 969.668 2554.46 978.508C2544.04 987.348 2532.6 992.921 2520.15 995.227C2507.81 997.445 2495.73 996.36 2483.92 991.97C2472.31 987.596 2462.25 980.403 2453.76 970.392ZM2468.93 957.522C2474.91 964.57 2481.82 969.509 2489.67 972.339C2497.62 975.082 2505.86 975.472 2514.38 973.51C2523.09 971.564 2531.38 967.254 2539.25 960.58C2547.12 953.907 2552.67 946.474 2555.91 938.28C2559.23 930.189 2560.14 922.042 2558.62 913.839C2557.11 905.636 2553.36 898.01 2547.38 890.961C2541.4 883.913 2534.49 878.974 2526.64 876.144C2518.8 873.315 2510.57 872.83 2501.96 874.69C2493.43 876.652 2485.23 880.969 2477.37 887.643C2469.5 894.316 2463.86 901.742 2460.43 909.92C2457.19 918.113 2456.28 926.355 2457.69 934.644C2459.2 942.847 2462.95 950.473 2468.93 957.522Z" fill="black"/>
<path d="M2666.86 1075.21C2674.05 1088.22 2677.82 1100.98 2678.16 1113.5C2678.69 1126.07 2675.72 1137.59 2669.26 1148.05C2662.98 1158.56 2653.63 1167.26 2641.2 1174.13C2628.78 1181.01 2616.5 1184.27 2604.37 1183.94C2592.31 1183.72 2581.1 1180.05 2570.73 1172.93C2560.54 1165.86 2551.84 1155.81 2544.65 1142.8L2522.57 1102.89L2644.78 1035.29L2666.86 1075.21ZM2561 1133.76C2568.91 1148.06 2578.84 1156.88 2590.79 1160.22C2602.75 1163.56 2615.75 1161.34 2629.82 1153.56C2644.01 1145.71 2652.98 1135.78 2656.73 1123.75C2660.49 1111.72 2658.41 1098.55 2650.5 1084.25L2639.51 1064.38L2550.01 1113.89L2561 1133.76Z" fill="black"/>
<path d="M2733.58 1277.38L2648.97 1305.07C2638.92 1308.36 2632.19 1313.45 2628.81 1320.33C2625.47 1327.35 2625.34 1335.57 2628.42 1344.99C2631.55 1354.54 2636.51 1361.09 2643.31 1364.64C2650.15 1368.32 2658.6 1368.52 2668.66 1365.22L2753.27 1337.54L2760.39 1359.31L2676.17 1386.87C2665.35 1390.41 2655.41 1391.06 2646.36 1388.81C2637.3 1386.55 2629.64 1382.08 2623.36 1375.4C2617.09 1368.71 2612.39 1360.6 2609.26 1351.05C2606.14 1341.5 2605.13 1332.17 2606.24 1323.07C2607.39 1314.1 2610.97 1306.09 2616.98 1299.05C2622.99 1292 2631.41 1286.71 2642.23 1283.17L2726.45 1255.61L2733.58 1277.38Z" fill="black"/>
<path d="M2693.44 1473.56C2706.97 1471.7 2719.55 1473.16 2731.15 1477.92C2742.78 1482.81 2752.31 1490.22 2759.76 1500.15C2767.36 1510.2 2772.05 1521.66 2773.81 1534.53C2775.84 1549.26 2773.98 1562.84 2768.25 1575.25C2762.67 1587.78 2753.6 1597.55 2741.03 1604.55L2737.29 1577.27C2744.1 1572.69 2748.86 1566.96 2751.56 1560.1C2754.27 1553.24 2755.05 1545.63 2753.9 1537.27C2752.65 1528.11 2749.47 1520.23 2744.37 1513.63C2739.27 1507.02 2732.59 1502.19 2724.33 1499.14C2716.09 1496.21 2706.85 1495.45 2696.63 1496.85C2686.41 1498.26 2677.73 1501.48 2670.58 1506.52C2663.45 1511.69 2658.25 1518.15 2654.98 1525.9C2651.85 1533.63 2650.92 1542.08 2652.18 1551.23C2653.32 1559.59 2656.13 1566.71 2660.58 1572.59C2665.04 1578.47 2671.17 1582.7 2678.96 1585.28L2682.7 1612.56C2668.72 1609.2 2657.35 1602.24 2648.6 1591.68C2639.87 1581.25 2634.49 1568.67 2632.47 1553.94C2630.68 1540.93 2632.04 1528.64 2636.53 1517.07C2641.16 1505.49 2648.41 1495.77 2658.29 1487.92C2668.18 1480.21 2679.9 1475.42 2693.44 1473.56Z" fill="black"/>
<path d="M2754.77 1787.4L2736.11 1786.37L2738.15 1749.25L2617.36 1742.61L2618.62 1719.73L2739.41 1726.38L2741.46 1689.06L2760.12 1690.09L2754.77 1787.4Z" fill="black"/>
<path d="M2577.42 1898.84C2579.38 1889.66 2582.71 1881.74 2587.41 1875.08C2592.25 1868.44 2598.06 1863.65 2604.85 1860.71C2611.64 1857.77 2618.96 1857.14 2626.83 1858.81L2621.72 1882.79C2615.72 1882.06 2610.38 1883.32 2605.72 1886.57C2601.02 1889.96 2597.88 1895.38 2596.29 1902.85C2594.65 1910.58 2595.2 1917 2597.95 1922.11C2600.83 1927.24 2605.22 1930.43 2611.11 1931.69C2615.7 1932.66 2619.73 1932.08 2623.19 1929.94C2626.63 1927.94 2629.57 1925.07 2632.01 1921.34C2634.42 1917.74 2637.29 1912.6 2640.63 1905.92C2644.89 1897.51 2648.79 1890.74 2652.35 1885.61C2656.01 1880.63 2660.82 1876.73 2666.76 1873.88C2672.71 1871.04 2679.94 1870.52 2688.46 1872.33C2696.32 1874.01 2702.78 1877.44 2707.84 1882.62C2712.9 1887.81 2716.25 1894.27 2717.89 1902.02C2719.53 1909.76 2719.36 1918.29 2717.38 1927.59C2714.56 1940.82 2708.92 1950.92 2700.45 1957.89C2692.09 1965.01 2682.04 1967.8 2670.32 1966.27L2675.59 1941.5C2680.65 1942.17 2685.41 1940.72 2689.87 1937.15C2694.33 1933.57 2697.31 1928.25 2698.81 1921.18C2700.18 1914.75 2699.66 1909.16 2697.25 1904.41C2694.84 1899.65 2690.55 1896.61 2684.39 1895.3C2680.2 1894.41 2676.46 1894.92 2673.18 1896.82C2670 1898.88 2667.21 1901.71 2664.8 1905.31C2662.39 1908.9 2659.54 1913.91 2656.26 1920.34C2651.85 1928.85 2647.8 1935.66 2644.11 1940.76C2640.39 1946 2635.49 1950.02 2629.42 1952.84C2623.44 1955.81 2616.13 1956.38 2607.48 1954.54C2600.54 1953.06 2594.39 1949.77 2589.04 1944.66C2583.66 1939.68 2579.84 1933.18 2577.57 1925.17C2575.41 1917.31 2575.36 1908.53 2577.42 1898.84Z" fill="black"/>
<path d="M1766.74 2689.62L1762.54 2678.3L1788.19 2668.79L1824.76 2767.44L1812.2 2772.09L1779.84 2684.77L1766.74 2689.62Z" fill="black"/>
<path d="M1954.5 2702.45C1957.97 2706.87 1961.95 2709.58 1966.45 2710.58C1971.03 2711.54 1975.98 2710.6 1981.28 2707.76C1988.38 2703.96 1992.11 2698.39 1992.47 2691.04C1992.91 2683.65 1989.52 2673.42 1982.3 2660.34C1982.56 2665.15 1981.2 2669.79 1978.19 2674.25C1975.15 2678.63 1971.06 2682.2 1965.93 2684.95C1960.2 2688.01 1954.45 2689.61 1948.68 2689.72C1942.95 2689.71 1937.59 2688.12 1932.6 2684.97C1927.61 2681.81 1923.39 2677.02 1919.96 2670.61C1915.06 2661.45 1913.77 2652.68 1916.1 2644.28C1918.38 2635.8 1924.39 2628.95 1934.14 2623.73C1946.12 2617.32 1956.58 2616.72 1965.54 2621.94C1974.58 2627.11 1983.22 2637.4 1991.46 2652.79C1997.23 2663.57 2001.01 2672.99 2002.8 2681.05C2004.67 2689.07 2004.28 2696.16 2001.63 2702.31C1999.07 2708.41 1993.81 2713.59 1985.86 2717.85C1977.13 2722.52 1969.08 2723.81 1961.68 2721.72C1954.29 2719.62 1948.3 2715.12 1943.73 2708.22L1954.5 2702.45ZM1962.56 2674.04C1968.29 2670.97 1972.06 2666.7 1973.86 2661.22C1975.61 2655.66 1974.87 2649.85 1971.61 2643.77C1968.18 2637.36 1963.61 2633.15 1957.92 2631.14C1952.22 2629.13 1946.12 2629.86 1939.62 2633.34C1933.63 2636.55 1929.85 2640.99 1928.27 2646.68C1926.78 2652.32 1927.68 2658.22 1930.98 2664.37C1934.32 2670.62 1938.76 2674.68 1944.28 2676.57C1949.8 2678.45 1955.89 2677.61 1962.56 2674.04Z" fill="black"/>
<path d="M2113.84 2612.11C2117.41 2616.45 2121.45 2619.06 2125.97 2619.96C2130.58 2620.81 2135.5 2619.75 2140.73 2616.78C2147.74 2612.81 2151.33 2607.15 2151.52 2599.8C2151.79 2592.4 2148.15 2582.25 2140.62 2569.35C2141 2574.15 2139.74 2578.82 2136.85 2583.36C2133.91 2587.81 2129.91 2591.47 2124.84 2594.34C2119.19 2597.55 2113.48 2599.27 2107.71 2599.53C2101.99 2599.65 2096.59 2598.19 2091.52 2595.15C2086.46 2592.11 2082.13 2587.43 2078.54 2581.1C2073.43 2572.07 2071.93 2563.33 2074.06 2554.87C2076.14 2546.34 2081.99 2539.35 2091.61 2533.9C2103.43 2527.2 2113.87 2526.36 2122.95 2531.36C2132.11 2536.32 2141 2546.39 2149.6 2561.59C2155.63 2572.22 2159.63 2581.55 2161.61 2589.57C2163.67 2597.55 2163.45 2604.64 2160.95 2610.85C2158.53 2617.01 2153.4 2622.32 2145.55 2626.76C2136.94 2631.64 2128.91 2633.12 2121.47 2631.2C2114.03 2629.29 2107.94 2624.93 2103.2 2618.14L2113.84 2612.11ZM2121.22 2583.52C2126.88 2580.31 2130.54 2575.95 2132.21 2570.44C2133.83 2564.84 2132.94 2559.04 2129.55 2553.05C2125.96 2546.72 2121.3 2542.61 2115.55 2540.74C2109.81 2538.86 2103.73 2539.74 2097.31 2543.38C2091.41 2546.72 2087.73 2551.26 2086.29 2556.98C2084.93 2562.65 2085.97 2568.53 2089.42 2574.61C2092.91 2580.77 2097.43 2584.73 2103 2586.48C2108.56 2588.23 2114.64 2587.25 2121.22 2583.52Z" fill="black"/>
<path d="M2268.94 2415.89L2225.42 2442.63L2242.79 2470.9C2243.06 2467.08 2244.55 2463.21 2247.26 2459.27C2249.91 2455.25 2253.39 2451.92 2257.68 2449.28C2264.54 2445.06 2271.01 2443.08 2277.09 2443.34C2283.11 2443.51 2288.43 2445.31 2293.04 2448.74C2297.68 2452.03 2301.55 2456.2 2304.65 2461.24C2308.31 2467.19 2310.47 2473.21 2311.13 2479.29C2311.79 2485.38 2310.65 2491.2 2307.69 2496.77C2304.82 2502.3 2300 2507.14 2293.22 2511.3C2284.54 2516.63 2276.14 2518.72 2268.03 2517.55C2259.91 2516.39 2252.99 2512.44 2247.27 2505.71L2258.3 2498.94C2262.27 2502.99 2266.8 2505.27 2271.9 2505.78C2277 2506.3 2282.19 2504.93 2287.48 2501.68C2294.01 2497.67 2297.73 2492.7 2298.65 2486.79C2299.52 2480.79 2297.98 2474.56 2294.02 2468.12C2290.06 2461.67 2285.36 2457.73 2279.92 2456.28C2274.43 2454.76 2268.46 2455.98 2262.01 2459.94C2257.63 2462.63 2254.45 2466.07 2252.46 2470.25C2250.51 2474.29 2249.9 2478.59 2250.65 2483.14L2239.99 2489.69L2208.91 2439.11L2262.85 2405.98L2268.94 2415.89Z" fill="black"/>
<path d="M1469.43 2686.7L1465.53 2720.38L1502.25 2724.63L1500.99 2735.47L1464.28 2731.22L1460.26 2765.91L1501.32 2770.67L1500.06 2781.51L1445.86 2775.23L1457.53 2674.34L1511.74 2680.61L1510.48 2691.45L1469.43 2686.7Z" fill="black"/>
<path d="M1248.7 2681.79C1250.31 2672.03 1253.97 2663.64 1259.66 2656.62C1265.36 2649.5 1272.36 2644.37 1280.65 2641.22C1289.03 2638.09 1297.87 2637.29 1307.15 2638.83C1318.06 2640.64 1327.15 2644.85 1334.41 2651.46C1341.67 2658.08 1346.37 2666.52 1348.5 2676.81L1332.85 2674.21C1331.07 2667.72 1327.82 2662.42 1323.1 2658.29C1318.47 2654.18 1312.52 2651.52 1305.25 2650.31C1298.26 2649.16 1291.72 2649.74 1285.63 2652.08C1279.54 2654.41 1274.42 2658.33 1270.26 2663.84C1266.12 2669.25 1263.38 2675.97 1262.05 2684.01C1260.73 2691.95 1261.15 2699.2 1263.31 2705.75C1265.48 2712.21 1269.07 2717.53 1274.09 2721.7C1279.1 2725.87 1285.1 2728.54 1292.08 2729.7C1299.36 2730.91 1305.84 2730.36 1311.53 2728.06C1317.33 2725.68 1322.12 2721.7 1325.9 2716.13L1341.54 2718.73C1336.22 2727.68 1329.06 2734.11 1320.05 2738.03C1311.06 2741.84 1301.11 2742.85 1290.2 2741.04C1280.92 2739.5 1272.81 2735.94 1265.86 2730.37C1259.03 2724.71 1254.06 2717.64 1250.94 2709.16C1247.83 2700.68 1247.08 2691.56 1248.7 2681.79Z" fill="black"/>
<path d="M1113.12 2676.88L1101.07 2671.38L1086.19 2575.79L1052.63 2649.25L1040.59 2643.75L1082.8 2551.36L1094.84 2556.87L1109.78 2652.32L1143.28 2579L1155.33 2584.5L1113.12 2676.88Z" fill="black"/>
<path d="M978.945 2493.14L928.234 2580.97L916.766 2574.35L967.478 2486.52L978.945 2493.14Z" fill="black"/>
<path d="M786.98 2488.66C781.462 2484.87 777.163 2480.51 774.083 2475.57C771.138 2470.6 769.606 2465.55 769.488 2460.41C769.426 2455.19 770.92 2450.27 773.97 2445.66L785.605 2453.65C783.314 2457.84 782.634 2462.26 783.566 2466.9C784.633 2471.51 787.885 2475.69 793.323 2479.42C798.521 2482.99 803.478 2484.51 808.194 2483.99C813.045 2483.43 816.871 2481.12 819.672 2477.04C821.868 2473.84 822.773 2470.64 822.387 2467.43C822.001 2464.22 820.845 2461.19 818.92 2458.34C816.995 2455.49 814.205 2451.93 810.551 2447.65C806.021 2442.42 802.572 2437.94 800.201 2434.19C797.911 2430.5 796.61 2426.31 796.298 2421.63C796.12 2416.91 797.817 2411.96 801.386 2406.76C804.516 2402.2 808.449 2398.96 813.185 2397.04C817.92 2395.11 823.026 2394.61 828.502 2395.55C834.058 2396.54 839.555 2398.9 844.993 2402.64C852.83 2408.02 857.882 2414.37 860.149 2421.7C862.496 2429.07 861.766 2436.22 857.957 2443.14L845.962 2434.9C847.759 2431.43 848.002 2427.48 846.69 2423.05C845.434 2418.53 842.367 2414.6 837.489 2411.25C832.93 2408.12 828.388 2406.77 823.862 2407.19C819.39 2407.53 815.699 2409.82 812.789 2414.06C810.702 2417.1 809.839 2420.16 810.201 2423.23C810.642 2426.36 811.745 2429.29 813.51 2432.03C815.41 2434.75 818.2 2438.31 821.879 2442.72C826.354 2448.03 829.749 2452.6 832.064 2456.43C834.434 2460.17 835.748 2464.43 836.005 2469.19C836.317 2473.88 834.661 2478.86 831.037 2484.14C828.236 2488.22 824.52 2491.32 819.89 2493.43C815.26 2495.55 810.056 2496.27 804.28 2495.6C798.504 2494.93 792.738 2492.61 786.98 2488.66Z" fill="black"/>
<g opacity="0.7">
<path d="M2603.34 2029.24C2547.36 2154.52 2461.07 2285.76 2370.49 2378.52M483.656 2021.05C537.492 2141.64 626.17 2275.56 719.959 2371.67" stroke="black" stroke-width="17.5037"/>
<path d="M2603.34 2029.24C2547.36 2154.52 2461.07 2285.76 2370.49 2378.52M483.656 2021.05C537.492 2141.64 626.17 2275.56 719.959 2371.67" stroke="black" stroke-width="17.5037"/>
</g>
<g style="transform:scale(1.45); transform-origin:center">
<path d="M1559.53 1529.74C1468.07 1529.74 1380.6 1461.2 1393.93 1323.33C1404.66 1212.37 1505.4 1040.77 1544.3 978.023C1551.42 966.539 1567.66 966.522 1574.8 977.997C1613.69 1040.52 1714.19 1211.35 1725.14 1323.33C1738.74 1462.54 1650.99 1529.74 1559.53 1529.74Z" fill="url(#paint0_linear_82:1196)"/>
<path d="M1737.54 1689.53C1788.41 1765.53 1894.02 1800.11 2001.18 1712.35C2087.43 1641.71 2174.01 1462.55 2204.51 1395.32C2210.1 1383.02 2201.08 1369.51 2187.57 1369.96C2113.98 1372.42 1916.11 1383.91 1816.96 1437.1C1693.72 1503.22 1686.67 1613.52 1737.54 1689.53Z" fill="url(#paint1_linear_82:1196)"/>
<path d="M1380.32 1689.53C1329.45 1765.53 1223.84 1800.11 1116.68 1712.35C1030.43 1641.71 943.851 1462.55 913.345 1395.32C907.762 1383.02 916.779 1369.51 930.285 1369.96C1003.88 1372.42 1201.75 1383.91 1300.89 1437.1C1424.14 1503.22 1431.19 1613.52 1380.32 1689.53Z" fill="url(#paint2_linear_82:1196)"/>
<path d="M1559.1 2157.84V1979.1M1559.1 1979.1C1559.1 1979.1 1559.1 1769.8 1802.01 1659.81M1559.1 1979.1C1559.1 1979.1 1559.1 1766.75 1311.37 1659.81" stroke="#6BBE85" stroke-width="29.5887"/>
</g>
<defs>
<linearGradient id="paint0_linear_82:1196" x1="1559.56" y1="953.998" x2="1559.56" y2="1529.74" gradientUnits="userSpaceOnUse">
<stop stop-color="#8AB5DC"/>
<stop offset="1" stop-color="#67BCB7"/>
</linearGradient>
<linearGradient id="paint1_linear_82:1196" x1="2216" y1="1369.28" x2="1737.53" y2="1689.51" gradientUnits="userSpaceOnUse">
<stop stop-color="#C3DC8A"/>
<stop offset="1" stop-color="#67BC84"/>
</linearGradient>
<linearGradient id="paint2_linear_82:1196" x1="901.863" y1="1369.28" x2="1380.33" y2="1689.51" gradientUnits="userSpaceOnUse">
<stop stop-color="#C3DC8A"/>
<stop offset="1" stop-color="#67BC84"/>
</linearGradient>
</defs>
</svg>
