<svg width="3081" height="3116" viewBox="0 0 3081 3116" fill="none" xmlns="http://www.w3.org/2000/svg">
<path d="M1559.53 1529.74C1468.07 1529.74 1380.6 1461.2 1393.93 1323.34C1404.66 1212.37 1505.4 1040.77 1544.3 978.023C1551.42 966.539 1567.66 966.522 1574.8 977.997C1613.69 1040.52 1714.19 1211.35 1725.14 1323.34C1738.74 1462.54 1650.99 1529.74 1559.53 1529.74Z" fill="url(#paint0_linear_82:1388)"/>
<path d="M1737.54 1689.53C1788.41 1765.53 1894.02 1800.11 2001.18 1712.35C2087.43 1641.71 2174.01 1462.55 2204.51 1395.32C2210.1 1383.02 2201.08 1369.51 2187.57 1369.96C2113.98 1372.42 1916.11 1383.91 1816.96 1437.1C1693.72 1503.22 1686.67 1613.52 1737.54 1689.53Z" fill="url(#paint1_linear_82:1388)"/>
<path d="M1380.32 1689.53C1329.45 1765.53 1223.84 1800.11 1116.68 1712.35C1030.43 1641.71 943.851 1462.55 913.345 1395.32C907.762 1383.02 916.779 1369.51 930.285 1369.96C1003.88 1372.42 1201.75 1383.91 1300.89 1437.1C1424.14 1503.22 1431.19 1613.52 1380.32 1689.53Z" fill="url(#paint2_linear_82:1388)"/>
<path d="M1559.1 2157.84V1979.1M1559.1 1979.1C1559.1 1979.1 1559.1 1769.8 1802.01 1659.81M1559.1 1979.1C1559.1 1979.1 1559.1 1766.75 1311.37 1659.81" stroke="#6BBE85" stroke-width="29.5887"/>
<defs>
<linearGradient id="paint0_linear_82:1388" x1="1559.56" y1="953.998" x2="1559.56" y2="1529.74" gradientUnits="userSpaceOnUse">
<stop stop-color="#8AB5DC"/>
<stop offset="1" stop-color="#67BCB7"/>
</linearGradient>
<linearGradient id="paint1_linear_82:1388" x1="2216" y1="1369.28" x2="1737.53" y2="1689.51" gradientUnits="userSpaceOnUse">
<stop stop-color="#C3DC8A"/>
<stop offset="1" stop-color="#67BC84"/>
</linearGradient>
<linearGradient id="paint2_linear_82:1388" x1="901.863" y1="1369.28" x2="1380.33" y2="1689.51" gradientUnits="userSpaceOnUse">
<stop stop-color="#C3DC8A"/>
<stop offset="1" stop-color="#67BC84"/>
</linearGradient>
</defs>
</svg>
